<svg width="64" height="21" fill="none" xmlns="http://www.w3.org/2000/svg"><path d="M10.1 2.76V.04H.5V15h9.62v-2.74H3.6v-3.6h5.64V6H3.6V2.76h6.5zm5.651 17.34l6.62-15.44h-3.24l-2.36 6.16-2.38-6.16h-3.22l4.04 9.42-2.64 6.02h3.18zm17.317-9.34V9.6c0-3.22-1.96-5.14-4.94-5.14-3.08 0-5.26 2.04-5.26 5.38 0 3.32 2.18 5.38 5.34 5.38 2.42 0 4.4-1.4 4.76-3.36l-2.94-.14c-.22.72-.88 1.14-1.9 1.14-1.32 0-2.1-.82-2.16-2.1h7.1zm-4.96-4.02c1.32 0 1.96.82 2.02 2.08h-4.16c.08-1.32.9-2.08 2.14-2.08zm16.933-3.98V.04h-9.6V15h9.62v-2.74h-6.52v-3.6h5.64V6h-5.64V2.76h6.5zm14.272 1.7c-1.56 0-2.58.7-3.18 1.64-.68-1.06-1.82-1.64-3.24-1.64-1.42 0-2.26.54-2.72 1.26V4.66h-2.76V15h2.92V9.26c0-1.24.7-2.08 1.86-2.08 1.06 0 1.68.74 1.68 2.06V15h2.92V8.9c.12-1.04.76-1.72 1.8-1.72 1.12 0 1.72.74 1.72 2.06V15h2.92V8.66c0-2.62-1.56-4.2-3.92-4.2z" fill="#fff"/></svg>